Coordinates
version=1
nRows=26
nColumns=24
inDegrees=yes

Units are S.I. units (second, meters, Newtons, ...)
Angles are in degrees.

endheader
time	pelvis_tilt	pelvis_list	pelvis_rotation	pelvis_tx	pelvis_ty	pelvis_tz	hip_flexion_r	hip_adduction_r	hip_rotation_r	knee_angle_r	ankle_angle_r	subtalar_angle_r	mtp_angle_r	hip_flexion_l	hip_adduction_l	hip_rotation_l	knee_angle_l	ankle_angle_l	subtalar_angle_l	mtp_angle_l	lumbar_extension	lumbar_bending	lumbar_rotation
      1.27000000	     62.23252880	     -0.74069504	     -1.77787841	      0.64925180	      1.01519144	     -0.20970304	      6.43499311	     -0.91192831	      8.25536313	    -18.06166519	    -28.01101571	     23.19926111	     65.79949882	     -6.35512956	    -11.48820057	      0.80072415	    -53.60695637	    -13.28831488	     30.74716894	     30.75089829	      0.00000000	      0.00000000	      0.00000000
      1.28000000	     62.22711055	     -0.74129514	     -1.78009806	      0.64925768	      1.01520382	     -0.20970283	      6.44594973	     -0.91154557	      8.25550792	    -18.06418734	    -28.00338935	     23.20351814	     65.77337797	     -6.35024760	    -11.48891588	      0.80204097	    -53.61372289	    -13.29104907	     30.74922459	     30.74182650	      0.00000000	      0.00000000	      0.00000000
      1.29000000	     62.21741747	     -0.74025884	     -1.78140832	      0.64926605	      1.01519912	     -0.20970555	      6.46078718	     -0.91123204	      8.25598002	    -18.06664376	    -27.99513522	     23.20606378	     65.75733716	     -6.33864115	    -11.48918920	      0.80316211	    -53.62324845	    -13.29505390	     30.75394719	     30.73112669	      0.00000000	      0.00000000	      0.00000000
      1.30000000	     62.20358053	     -0.73747464	     -1.78137793	      0.64927553	      1.01518228	     -0.20971248	      6.47970160	     -0.91166323	      8.25637860	    -18.06805453	    -27.98671244	     23.20699350	     65.75262418	     -6.32088155	    -11.48884415	      0.80480229	    -53.63369527	    -13.30018931	     30.76172431	     30.71890667	      0.00000000	      0.00000000	      0.00000000
      1.31000000	     62.18570382	     -0.73291621	     -1.77966541	      0.64928360	      1.01516518	     -0.20972036	      6.50292123	     -0.91396661	      8.25625198	    -18.06739216	    -27.97915608	     23.20692111	     65.75993002	     -6.29838863	    -11.48776627	      0.80774763	    -53.64299222	    -13.30620106	     30.77266812	     30.70534763	      0.00000000	      0.00000000	      0.00000000
      1.32000000	     62.16410651	     -0.72645173	     -1.77606685	      0.64929420	      1.01515594	     -0.20972450	      6.52988571	     -0.91891796	      8.25526308	    -18.06392569	    -27.97391759	     23.20685350	     65.77928724	     -6.27325320	    -11.48598730	      0.81247025	    -53.64938841	    -13.31275908	     30.78659616	     30.69069333	      0.00000000	      0.00000000	      0.00000000
      1.33000000	     62.13993852	     -0.71801302	     -1.77065608	      0.64931770	      1.01515784	     -0.20972021	      6.55883407	     -0.92629599	      8.25336647	    -18.05735794	    -27.97259961	     23.20797213	     65.80998096	     -6.24788853	    -11.48367563	      0.81884331	    -53.65189084	    -13.31949664	     30.80304912	     30.67522834	      0.00000000	      0.00000000	      0.00000000
      1.34000000	     62.11559627	     -0.70814402	     -1.76404164	      0.64935602	      1.01516870	     -0.20970557	      6.58691924	     -0.93484954	      8.25091673	    -18.04776787	    -27.97665462	     23.21138749	     65.85049604	     -6.22474131	    -11.48109814	      0.82610056	    -53.65047317	    -13.32604453	     30.82133161	     30.65924662	      0.00000000	      0.00000000	      0.00000000
      1.35000000	     62.09448751	     -0.69836611	     -1.75748631	      0.64939276	      1.01517810	     -0.20968737	      6.61078096	     -0.94283704	      8.24865660	    -18.03545756	    -27.98710156	     23.21792167	     65.89851963	     -6.20618502	    -11.47866104	      0.83307775	    -53.64601375	    -13.33205894	     30.84056587	     30.64301602	      0.00000000	      0.00000000	      0.00000000
      1.36000000	     62.08018286	     -0.69086822	     -1.75255882	      0.64940759	      1.01517662	     -0.20967696	      6.62743070	     -0.94876525	      8.24757483	    -18.02080188	    -28.00429249	     23.22795044	     65.95100986	     -6.19448737	    -11.47697770	      0.83860872	    -53.64001388	    -13.33724074	     30.85976251	     30.62674893	      0.00000000	      0.00000000	      0.00000000
      1.37000000	     62.07523824	     -0.68758123	     -1.75049603	      0.64939976	      1.01516939	     -0.20967716	      6.63495493	     -0.95181737	      8.24863727	    -18.00428352	    -28.02775129	     23.24131692	     66.00433819	     -6.19157470	    -11.47679405	      0.84187164	    -53.63417842	    -13.34134391	     30.87791660	     30.61058749	      0.00000000	      0.00000000	      0.00000000
      1.38000000	     62.08027819	     -0.68926622	     -1.75182169	      0.64938450	      1.01516873	     -0.20968176	      6.63271588	     -0.95176518	      8.25244700	    -17.98673234	    -28.05610765	     23.25732444	     66.05450935	     -6.19844246	    -11.47869857	      0.84253969	    -53.62994973	    -13.34417982	     30.89413060	     30.59460241	      0.00000000	      0.00000000	      0.00000000
      1.39000000	     62.09399193	     -0.69527573	     -1.75631104	      0.64937031	      1.01517616	     -0.20968589	      6.62141046	     -0.94874865	      8.25898058	    -17.96944985	    -28.08715628	     23.27481894	     66.09746073	     -6.21448409	    -11.48277242	      0.84072811	    -53.62811916	    -13.34563456	     30.90775777	     30.57879633	      0.00000000	      0.00000000	      0.00000000
      1.40000000	     62.11392275	     -0.70404989	     -1.76307564	      0.64935348	      1.01518298	     -0.20968963	      6.60323980	     -0.94331377	      8.26753468	    -17.95399859	    -28.11806838	     23.29236198	     66.12943492	     -6.23726375	    -11.48845746	      0.83685919	    -53.62864838	    -13.34570712	     30.91854783	     30.56310115	      0.00000000	      0.00000000	      0.00000000
      1.41000000	     62.13713320	     -0.71381190	     -1.77074206	      0.64933044	      1.01518363	     -0.20969425	      6.58172230	     -0.93653638	      8.27689033	    -17.94185483	    -28.14574680	     23.30846804	     66.14740369	     -6.26302775	    -11.49474650	      0.83154272	    -53.63078344	    -13.34454943	     30.92675620	     30.54736773	      0.00000000	      0.00000000	      0.00000000
      1.42000000	     62.16034366	     -0.72299130	     -1.77779379	      0.64930534	      1.01518027	     -0.20969952	      6.56085915	     -0.92988565	      8.28562376	    -17.93414401	    -28.16726786	     23.32185540	     66.14949804	     -6.28777414	    -11.50055852	      0.82546454	    -53.63341326	    -13.34247120	     30.93317147	     30.53135509	      0.00000000	      0.00000000	      0.00000000
      1.43000000	     62.18022431	     -0.73040039	     -1.78302115	      0.64928318	      1.01517735	     -0.20970465	      6.54415378	     -0.92482858	      8.29248782	    -17.93141411	    -28.18032848	     23.33165492	     66.13538203	     -6.30833399	    -11.50509616	      0.81926499	    -53.63546563	    -13.33988420	     30.93902927	     30.51472672	      0.00000000	      0.00000000	      0.00000000
      1.44000000	     62.19423512	     -0.73527134	     -1.78585719	      0.64926570	      1.01517712	     -0.20970844	      6.53391807	     -0.92232902	      8.29674944	    -17.93346190	    -28.18362438	     23.33753330	     66.10650881	     -6.32298351	    -11.50802622	      0.81343555	    -53.63614105	    -13.33719737	     30.94581384	     30.49705741	      0.00000000	      0.00000000	      0.00000000
      1.45000000	     62.20148966	     -0.73728410	     -1.78649388	      0.64925694	      1.01517917	     -0.20970855	      6.53085595	     -0.92243735	      8.29835808	    -17.93936408	    -28.17710537	     23.33970497	     66.06621433	     -6.33151490	    -11.50943601	      0.80827828	    -53.63497260	    -13.33470248	     30.95498352	     30.47785326	      0.00000000	      0.00000000	      0.00000000
      1.46000000	     62.20296980	     -0.73676955	     -1.78580188	      0.64926220	      1.01518304	     -0.20970124	      6.53390168	     -0.92424638	      8.29789232	    -17.94776330	    -28.16206827	     23.33882193	     66.01961716	     -6.33497859	    -11.50962606	      0.80392191	    -53.63183893	    -13.33249375	     30.96767652	     30.45658958	      0.00000000	      0.00000000	      0.00000000
      1.47000000	     62.20094348	     -0.73488397	     -1.78501386	      0.64927821	      1.01518846	     -0.20968508	      6.54044298	     -0.92628635	      8.29632180	    -17.95724441	    -28.14106615	     23.33575379	     65.97329074	     -6.33528823	    -11.50889297	      0.80036839	    -53.62700456	    -13.33045368	     30.98446017	     30.43277088	      0.00000000	      0.00000000	      0.00000000
      1.48000000	     62.19805809	     -0.73330315	     -1.78519467	      0.64929099	      1.01519099	     -0.20966801	      6.54711248	     -0.92716140	      8.29468408	    -17.96653130	    -28.11763596	     23.33129964	     65.93467985	     -6.33475916	    -11.50748702	      0.79758103	    -53.62113891	    -13.32831337	     31.00518056	     30.40601461	      0.00000000	      0.00000000	      0.00000000
      1.49000000	     62.19664253	     -0.73344335	     -1.78670029	      0.64929138	      1.01518563	     -0.20966285	      6.55100741	     -0.92613408	      8.29377744	    -17.97444297	    -28.09586460	     23.32589121	     65.91127264	     -6.33557794	    -11.50571725	      0.79558565	    -53.61522169	    -13.32576392	     31.02895156	     30.37615463	      0.00000000	      0.00000000	      0.00000000
      1.50000000	     62.19831880	     -0.73582689	     -1.78899900	      0.64928378	      1.01517660	     -0.20967203	      6.55069977	     -0.92338332	      8.29392316	    -17.97985274	    -28.07982966	     23.31935348	     65.90958932	     -6.33921871	    -11.50396197	      0.79448700	    -53.61028567	    -13.32257251	     31.05429581	     30.34335384	      0.00000000	      0.00000000	      0.00000000
      1.51000000	     62.20367306	     -0.73999730	     -1.79103633	      0.64927447	      1.01517324	     -0.20968461	      6.54640903	     -0.91978661	      8.29482684	    -17.98191353	    -28.07297197	     23.31079394	     65.93408169	     -6.34600299	    -11.50248681	      0.79435550	    -53.60706413	    -13.31866421	     31.07941565	     30.30821079	      0.00000000	      0.00000000	      0.00000000
      1.52000000	     62.21197388	     -0.74482679	     -1.79185085	      0.64926546	      1.01517803	     -0.20968974	      6.53941041	     -0.91637837	      8.29559645	    -17.98048327	    -28.07748201	     23.29869870	     65.98605780	     -6.35506177	    -11.50126090	      0.79506721	    -53.60570543	    -13.31415222	     31.10253579	     30.27184358	      0.00000000	      0.00000000	      0.00000000
